<svg width="25" height="24" viewBox="0 0 25 24" fill="none" xmlns="http://www.w3.org/2000/svg">
<path d="M4.66133 5.73616C4.69689 5.09612 4.79357 4.5278 4.9351 4.02449C5.8584 0.741011 10.9187 1.30342 10.2448 4.647C10.1684 5.02579 10.0466 5.39493 9.87601 5.73616C8.83308 7.82204 4.4006 10.4294 4.66133 5.73616Z" />
<path d="M12.9028 5.21468C12.9384 4.57463 13.0351 4.00631 13.1766 3.50301C14.0999 0.219526 19.1602 0.781936 18.4863 4.12551C18.4099 4.5043 18.2881 4.87345 18.1175 5.21468C17.0746 7.30055 12.6421 9.90789 12.9028 5.21468Z" />
<path d="M17.4204 9.12552C17.7889 8.60101 18.1714 8.1697 18.5576 7.81728C21.0771 5.51816 25.0752 8.67056 22.7356 11.1525C22.4706 11.4337 22.1721 11.6827 21.8469 11.8821C19.8589 13.1014 14.7181 12.9716 17.4204 9.12552Z" />
<path d="M17.01 16.0813C17.5022 15.6706 17.9836 15.3535 18.4482 15.1135C21.4786 13.5482 24.5201 17.6314 21.6158 19.42C21.2868 19.6226 20.9339 19.7855 20.568 19.8936C18.3315 20.5543 13.401 19.0928 17.01 16.0813Z" />
<path d="M2.72315 11.4723C1.95564 11.7921 1.49539 12.2018 1.24616 12.6412C0.279675 14.3453 2.72362 16.2806 4.50672 17.0921C7.20875 18.3219 7.16046 22.0508 9.91523 23.1574C11.0496 23.613 12.2425 23.328 12.6311 22.1624C15.2384 16.1655 14.1955 13.0367 11.8489 11.2116C9.50225 9.38642 5.85196 10.1686 2.72315 11.4723Z" />
</svg>
