<svg width="130" height="35" viewBox="0 0 130 35" fill="none" xmlns="http://www.w3.org/2000/svg">
<path d="M12.384 23.488L14.016 28.072H16.68L10.032 10.6H7.872L0.96 28.072H3.552L5.184 23.488H12.384ZM9.024 13L11.736 21.376H5.76L9.024 13ZM23.9604 28.36C25.6564 28.36 26.8804 27.72 27.6324 26.44V28.072H29.7684V10.24H27.6324V16.984C26.6084 15.768 25.3844 15.16 23.9604 15.16C22.2644 15.16 20.9444 15.728 20.0004 16.864C19.0724 17.984 18.6084 19.544 18.6084 21.544C18.6084 23.544 19.0724 25.184 20.0004 26.464C20.9444 27.728 22.2644 28.36 23.9604 28.36ZM27.6324 20.824V22.48C27.5204 23.728 27.1924 24.656 26.6484 25.264C26.1044 25.872 25.2564 26.176 24.1044 26.176C22.9684 26.176 22.1364 25.768 21.6084 24.952C21.0964 24.136 20.8324 23.064 20.8164 21.736C20.8484 20.28 21.1684 19.176 21.7764 18.424C22.3684 17.688 23.1764 17.32 24.2004 17.32C26.3604 17.32 27.5044 18.488 27.6324 20.824ZM41.7129 16.888C40.5449 15.624 39.1049 14.992 37.3929 14.992C35.6649 14.992 34.2409 15.624 33.1209 16.888C32.0009 18.152 31.4409 19.736 31.4409 21.64C31.4409 23.544 32.0009 25.16 33.1209 26.488C34.2409 27.816 35.6569 28.48 37.3689 28.48C39.0809 28.48 40.5209 27.816 41.6889 26.488C42.8729 25.16 43.4649 23.544 43.4649 21.64C43.4649 19.736 42.8809 18.152 41.7129 16.888ZM34.6329 18.208C35.2889 17.264 36.1849 16.792 37.3209 16.792C38.4569 16.792 39.3609 17.264 40.0329 18.208C40.7049 19.136 41.0409 20.264 41.0409 21.592C41.0409 22.92 40.7049 24.104 40.0329 25.144C39.3449 26.168 38.4329 26.68 37.2969 26.68C36.1609 26.68 35.2649 26.16 34.6089 25.12C33.9689 24.096 33.6489 22.928 33.6489 21.616C33.6489 20.288 33.9769 19.152 34.6329 18.208ZM47.8579 15.256H45.6019V32.8H47.8579V26.416C48.5939 27.712 49.6019 28.36 50.8819 28.36C52.4979 28.36 53.7779 27.744 54.7219 26.512C55.6499 25.296 56.1139 23.68 56.1139 21.664C56.1139 19.664 55.6579 18.064 54.7459 16.864C53.8339 15.68 52.5459 15.088 50.8819 15.088C49.8579 15.088 48.8499 15.712 47.8579 16.96V15.256ZM53.1379 18.352C53.6339 19.136 53.8899 20.256 53.9059 21.712C53.8739 23.072 53.5859 24.168 53.0419 25C52.5139 25.816 51.7459 26.224 50.7379 26.224C48.9459 26.224 47.9859 25.048 47.8579 22.696V21.232C48.1139 18.544 49.0739 17.2 50.7379 17.2C51.8259 17.2 52.6259 17.584 53.1379 18.352ZM65.3927 25.792C64.9767 26.208 64.3367 26.416 63.4727 26.416C62.1447 26.416 61.4807 25.76 61.4807 24.448V17.44H65.0567V15.688H61.4807V11.968H59.2967V15.688H57.5447V17.44H59.2967V24.784C59.2967 27.04 60.4007 28.168 62.6087 28.168C64.1927 28.168 65.1687 27.664 65.5367 26.656L65.3927 25.792ZM76.0856 17.248C75.3176 15.808 73.9416 15.088 71.9576 15.088C70.8056 15.088 69.9656 15.864 69.4376 17.416V15.136H67.2056V28.072H69.4376V19.984C69.4376 19.28 69.6776 18.632 70.1576 18.04C70.6056 17.448 71.2696 17.152 72.1496 17.152C73.0456 17.152 73.6696 17.456 74.0216 18.064C74.3896 18.656 74.5736 19.272 74.5736 19.912V28.072H76.8056V19.984C76.8056 19.28 77.0936 18.632 77.6696 18.04C78.2616 17.448 78.9976 17.152 79.8776 17.152C80.7416 17.152 81.3096 17.456 81.5816 18.064C81.8216 18.688 81.9416 19.464 81.9416 20.392V28.072H84.1736V19.912C84.1736 18.568 83.8376 17.424 83.1656 16.48C82.4936 15.552 81.3336 15.088 79.6856 15.088C78.0216 15.088 76.8216 15.808 76.0856 17.248ZM97.3772 22.6C97.3772 19.064 96.5612 16.808 94.9292 15.832C94.2412 15.464 93.4252 15.28 92.4812 15.28C90.7532 15.28 89.3372 15.904 88.2332 17.152C87.1292 18.4 86.5772 19.952 86.5772 21.808C86.5772 23.68 87.1212 25.232 88.2092 26.464C89.2812 27.68 90.6892 28.288 92.4332 28.288C94.1772 28.288 95.7052 27.872 97.0172 27.04V24.736C95.8812 25.744 94.3612 26.248 92.4572 26.248C91.3852 26.248 90.5292 25.968 89.8892 25.408C89.2652 24.864 88.8892 23.928 88.7612 22.6H97.3772ZM92.4572 17.416C93.4972 17.416 94.2492 17.68 94.7132 18.208C95.1612 18.736 95.4252 19.568 95.5052 20.704H88.7612C89.0492 18.512 90.2652 17.416 92.4092 17.416H92.4572Z" />
<path d="M109.661 10.7362C109.697 10.0961 109.794 9.5278 109.935 9.02449C110.858 5.74101 115.919 6.30342 115.245 9.647C115.168 10.0258 115.047 10.3949 114.876 10.7362C113.833 12.822 109.401 15.4294 109.661 10.7362Z"  />
<path d="M117.903 10.2147C117.938 9.57463 118.035 9.00631 118.177 8.50301C119.1 5.21953 124.16 5.78194 123.486 9.12551C123.41 9.5043 123.288 9.87345 123.118 10.2147C122.075 12.3006 117.642 14.9079 117.903 10.2147Z"  />
<path d="M122.42 14.1255C122.789 13.601 123.171 13.1697 123.558 12.8173C126.077 10.5182 130.075 13.6706 127.736 16.1525C127.471 16.4337 127.172 16.6827 126.847 16.8821C124.859 18.1014 119.718 17.9716 122.42 14.1255Z"  />
<path d="M122.01 21.0813C122.502 20.6706 122.984 20.3535 123.448 20.1135C126.479 18.5482 129.52 22.6314 126.616 24.42C126.287 24.6226 125.934 24.7855 125.568 24.8936C123.331 25.5543 118.401 24.0928 122.01 21.0813Z"  />
<path d="M107.723 16.4723C106.956 16.7921 106.495 17.2018 106.246 17.6412C105.28 19.3453 107.724 21.2806 109.507 22.0921C112.209 23.3219 112.16 27.0508 114.915 28.1574C116.05 28.613 117.243 28.328 117.631 27.1624C120.238 21.1655 119.195 18.0367 116.849 16.2116C114.502 14.3864 110.852 15.1686 107.723 16.4723Z"  />
</svg>
